<svg width="100" height="100" viewBox="0 0 100 100" fill="none" xmlns="http://www.w3.org/2000/svg">
<g clip-path="url(#clip0)">
<path d="M95.3334 97.1666L86.1139 87.3111C89.0504 84.0633 90.8334 79.75 90.8334 75C90.8334 71.0523 89.6015 67.4068 87.5 64.4232V8.3334C87.5 5.5 85.3334 3.3334 82.5 3.3334H60.8334C60.8334 1.5 59.3334 0 57.5 0H34.1666C32.3332 0 30.8332 1.5 30.8332 3.3334H9.1666C6.3332 3.3334 4.1666 5.5 4.1666 8.3334V95C4.1666 97.8334 6.3332 100 9.1666 100H79.1666C80.1666 100 80.8332 99.3334 80.8332 98.3334V91.351C81.8439 90.8375 82.7992 90.2326 83.6898 89.548L92.9998 99.5002C93.3332 99.8336 93.6664 100 94.1664 100C94.4998 100 94.9998 99.8336 95.333 99.5002C96 98.8334 96 97.8334 95.3334 97.1666ZM72.5002 90C72.5002 90 72.5 90 72.5002 90C64.1666 90 57.5 83.3334 57.5 75C57.5 68.5014 61.5545 63.0172 67.2918 60.9168C67.3142 60.9092 67.3359 60.9002 67.3584 60.8926C67.3855 60.8828 67.4137 60.8746 67.4408 60.8648C68.5152 60.508 69.6502 60.2693 70.8332 60.1664C71.032 60.1002 71.2572 60.0609 71.4879 60.0369C71.8226 60.015 72.1594 59.9998 72.5 59.9998C72.7476 59.9998 72.9937 60.0066 73.2383 60.0182C73.2576 60.0191 73.2769 60.0197 73.2961 60.0205C76.8406 60.2025 80.0441 61.5955 82.5088 63.7959C83.2332 64.4529 83.9004 65.1887 84.5 65.9996C84.5453 66.0676 84.6004 66.1287 84.6625 66.1844C86.4482 68.6537 87.5 71.6945 87.5 75C87.5 83.3332 80.8334 90 72.5002 90ZM34.1666 16.6666H57.5C59.3334 16.6666 60.8334 15.1666 60.8334 13.3332H77.5V57.3332C77.375 57.3043 77.2494 57.2762 77.1232 57.2486C76.9449 57.2027 76.7656 57.1598 76.5853 57.1191C76.5144 57.1033 76.4433 57.0881 76.3723 57.073C76.1588 57.0275 75.9441 56.9848 75.7277 56.9469C75.7023 56.9424 75.6769 56.9387 75.6515 56.9344C75.4195 56.8945 75.1859 56.8592 74.951 56.8281C74.9336 56.8258 74.9164 56.8232 74.899 56.8209C74.6582 56.7898 74.4154 56.7641 74.1717 56.7422C74.1367 56.7391 74.1019 56.7359 74.067 56.733C73.8293 56.7131 73.5904 56.6975 73.3502 56.6865C73.3144 56.685 73.2785 56.684 73.2426 56.6824C72.9961 56.6727 72.7488 56.6664 72.4998 56.6664C70.6805 56.6664 68.926 56.9291 67.2701 57.4168C59.7168 59.4908 54.34 66.2533 54.1754 74.4473C54.1736 74.5092 54.1723 74.5711 54.1711 74.6332C54.1703 74.7 54.1664 74.766 54.1664 74.8332V75C54.1664 75.1846 54.1699 75.3682 54.1752 75.5512C54.176 75.5768 54.1771 75.6023 54.1781 75.6279C54.3764 81.5861 57.3816 86.8012 61.923 90H14.1666V13.3334H30.8332C30.8334 15.1666 32.3334 16.6666 34.1666 16.6666ZM82.5 6.6666C83.5 6.6666 84.1666 7.3332 84.1666 8.3332V60.8297C84.0248 60.7131 83.8807 60.599 83.7353 60.4867C82.8353 59.7781 81.8631 59.1588 80.8334 58.6381V13.3334C80.8334 11.5 79.3334 10 77.5 10H60.8334V6.6666H82.5ZM34.1666 3.3334H57.5V5V11.6666V13.3332H34.1666V11.6666V5V3.3334ZM77.5 96.6666H9.1666C8.1666 96.6666 7.5 96 7.5 95V8.3334C7.5 7.3334 8.1666 6.6668 9.1666 6.6668H30.8332V10H14.1666C12.3332 10 10.8332 11.5 10.8332 13.3334V90C10.8332 91.8334 12.3332 93.3334 14.1666 93.3334H72.5H77.5V96.6666Z" fill="#A5090F"/>
<path d="M23.5 34.8334C21 34.8334 19.1666 36.8334 19.1666 39.1668V45.6668C19.1666 48.1668 21 50.0002 23.5 50.0002H26.0457C26.7906 52.8672 29.4082 55.0002 32.5 55.0002C35.5916 55.0002 38.2094 52.8672 38.9543 50.0002H52.7125C53.4574 52.8672 56.075 55.0002 59.1668 55.0002C62.2584 55.0002 64.8762 52.8672 65.6211 50.0002H68.1668C70.6668 50.0002 72.5002 48.1668 72.6668 45.6668V39.1668C72.6668 36.6668 70.6668 34.8334 68.3334 34.8334H64.7834L58.3334 25.8334C57.3334 24.3334 55.6668 23.5 53.8334 23.5H46.6215C46.3932 23.3926 46.1283 23.3334 45.8334 23.3334C45.5385 23.3334 45.2738 23.3928 45.0453 23.5H37.8334C36 23.5 34.3334 24.3334 33.3334 25.8334L26.8834 34.8334H23.5V34.8334ZM32.5 51.6666C30.6666 51.6666 29.1666 50.1666 29.1666 48.3332C29.1666 46.4998 30.6666 44.9998 32.5 44.9998C34.3334 44.9998 35.8334 46.4998 35.8334 48.3332C35.8334 50.1666 34.3334 51.6666 32.5 51.6666ZM59.1666 51.6666C57.3332 51.6666 55.8332 50.1666 55.8332 48.3332C55.8332 46.4998 57.3332 44.9998 59.1666 44.9998C61 44.9998 62.5 46.5 62.5 48.3334C62.5 50.1668 61 51.6666 59.1666 51.6666ZM69.3334 39.1666V45.6666C69.3334 46.1666 68.8334 46.6666 68.3334 46.6666H65.6668C64.8334 43.8332 62.6668 41.6666 59.5002 41.6666C59.4395 41.6666 59.3791 41.669 59.3188 41.6705C59.2682 41.6694 59.2178 41.6666 59.1668 41.6666C56.075 41.6666 53.4574 43.7996 52.7125 46.6666H39.1668C38.3334 43.8332 35.8334 41.6666 32.6668 41.6666C32.6363 41.6666 32.6064 41.6682 32.5762 41.6686C32.5508 41.6684 32.5258 41.6666 32.5002 41.6666C29.4084 41.6666 26.7908 43.7996 26.0459 46.6666H23.5C23 46.6666 22.5 46.1666 22.5 45.6666V39.1666C22.5 38.6666 23 38.1666 23.5 38.1666H26.7504C26.9715 38.2717 27.2201 38.3332 27.5 38.3332H64.1666C64.4465 38.3332 64.6951 38.2717 64.9162 38.1666H68.3332C68.8334 38.1666 69.3334 38.6666 69.3334 39.1666ZM55.5 27.5L60.7148 34.8334H47.5V26.6668H53.6666C54.5 26.6666 55.1666 27 55.5 27.5ZM35.8334 27.5C36.3334 27 37 26.6666 37.6668 26.6666H44.1668V34.8332H30.7816L35.8334 27.5Z" fill="#A5090F"/>
<path d="M45.8334 63.3334H20.8334C19.8334 63.3334 19.1668 64 19.1668 65C19.1668 66 19.8334 66.6666 20.8334 66.6666H45.8334C46.8334 66.6666 47.5 66 47.5 65C47.5 64 46.8334 63.3334 45.8334 63.3334Z" fill="#A5090F"/>
<path d="M45.8334 71.6666H20.8334C19.8334 71.6666 19.1668 72.3332 19.1668 73.3332C19.1668 74.3332 19.8334 74.9998 20.8334 74.9998H45.8334C46.8334 74.9998 47.5 74.3332 47.5 73.3332C47.5 72.3332 46.8334 71.6666 45.8334 71.6666Z" fill="#A5090F"/>
<path d="M45.8334 80H20.8334C19.8334 80 19.1668 80.6666 19.1668 81.6666C19.1668 82.6666 19.8334 83.3332 20.8334 83.3332H45.8334C46.8334 83.3332 47.5 82.6666 47.5 81.6666C47.5 80.6666 46.8334 80 45.8334 80Z" fill="#A5090F"/>
</g>
<defs>
<clipPath id="clip0">
<rect width="100" height="100" fill="white"/>
</clipPath>
</defs>
</svg>
