<svg width="100" height="100" viewBox="0 0 100 100" fill="none" xmlns="http://www.w3.org/2000/svg">
<path d="M53.35 57.0969L56.4172 51.9313L48.0687 43.5828L42.9031 46.65C41.5469 45.9344 40.1172 45.3438 38.6375 44.8875L37.1516 39.0625H25.3469L23.8625 44.8891C22.3828 45.3453 20.9531 45.9359 19.5969 46.6516L14.4313 43.5844L6.08281 51.9328L9.15 57.0984C8.43437 58.4547 7.84375 59.8844 7.3875 61.3641L1.5625 62.8484V74.6531L7.38906 76.1375C7.84531 77.6172 8.43594 79.0469 9.15156 80.4031L6.08438 85.5687L14.4328 93.9172L19.5984 90.85C20.9547 91.5656 22.3844 92.1562 23.8641 92.6125L25.3484 98.4375H37.1531L38.6375 92.6109C40.1172 92.1547 41.5469 91.5641 42.9031 90.8484L48.0687 93.9156L56.4172 85.5672L53.35 80.4016C54.0656 79.0453 54.6562 77.6156 55.1125 76.1359L60.9375 74.6516V62.8469L55.1109 61.3625C54.6547 59.8828 54.0656 58.4531 53.35 57.0969V57.0969ZM57.8125 72.2234L52.5875 73.5563L52.35 74.4375C51.8563 76.2766 51.1312 78.0313 50.1953 79.6516L49.7391 80.4438L52.4891 85.0781L47.5766 89.9906L42.9422 87.2406L42.15 87.6969C40.5297 88.6328 38.775 89.3563 36.9359 89.8516L36.0547 90.0891L34.7234 95.3125H27.7781L26.4453 90.0875L25.5641 89.85C23.725 89.3563 21.9703 88.6312 20.35 87.6953L19.5578 87.2391L14.9234 89.9891L10.0109 85.0766L12.7609 80.4422L12.3047 79.65C11.3688 78.0297 10.6453 76.275 10.15 74.4359L9.9125 73.5547L4.6875 72.2234V65.2781L9.9125 63.9453L10.15 63.0641C10.6437 61.225 11.3688 59.4703 12.3047 57.85L12.7609 57.0578L10.0109 52.4234L14.9234 47.5109L19.5578 50.2609L20.35 49.8047C21.9703 48.8688 23.725 48.1453 25.5641 47.65L26.4453 47.4125L27.7766 42.1875H34.7219L36.0547 47.4125L36.9359 47.65C38.775 48.1438 40.5297 48.8688 42.15 49.8047L42.9422 50.2609L47.5766 47.5109L52.4891 52.4234L49.7391 57.0578L50.1953 57.85C51.1312 59.4703 51.8547 61.225 52.35 63.0641L52.5875 63.9453L57.8125 65.2766V72.2234Z" fill="#A5090F"/>
<path d="M31.25 50C20.9109 50 12.5 58.4109 12.5 68.75C12.5 79.0891 20.9109 87.5 31.25 87.5C41.5891 87.5 50 79.0891 50 68.75C50 58.4109 41.5891 50 31.25 50ZM31.25 84.375C22.6344 84.375 15.625 77.3656 15.625 68.75C15.625 60.1344 22.6344 53.125 31.25 53.125C39.8656 53.125 46.875 60.1344 46.875 68.75C46.875 77.3656 39.8656 84.375 31.25 84.375Z" fill="#A5090F"/>
<path d="M31.25 59.375C26.0797 59.375 21.875 63.5797 21.875 68.75C21.875 73.9203 26.0797 78.125 31.25 78.125C36.4203 78.125 40.625 73.9203 40.625 68.75C40.625 63.5797 36.4203 59.375 31.25 59.375ZM31.25 75C27.8031 75 25 72.1969 25 68.75C25 65.3031 27.8031 62.5 31.25 62.5C34.6969 62.5 37.5 65.3031 37.5 68.75C37.5 72.1969 34.6969 75 31.25 75Z" fill="#A5090F"/>
<path d="M93.75 14.0625H56.25C53.6656 14.0625 51.5625 16.1656 51.5625 18.75V40.625C51.5625 43.2094 53.6656 45.3125 56.25 45.3125H59.375V52.5281L73.8063 45.3125H93.75C96.3344 45.3125 98.4375 43.2094 98.4375 40.625V18.75C98.4375 16.1656 96.3344 14.0625 93.75 14.0625ZM95.3125 40.625C95.3125 41.4875 94.6125 42.1875 93.75 42.1875H73.0687L62.5 47.4719V42.1875H56.25C55.3875 42.1875 54.6875 41.4875 54.6875 40.625V18.75C54.6875 17.8875 55.3875 17.1875 56.25 17.1875H93.75C94.6125 17.1875 95.3125 17.8875 95.3125 18.75V40.625Z" fill="#A5090F"/>
<path d="M6.25 29.6875H21.4422L31.25 35.5734V29.6875H43.75C46.3344 29.6875 48.4375 27.5844 48.4375 25V6.25C48.4375 3.66562 46.3344 1.5625 43.75 1.5625H6.25C3.66562 1.5625 1.5625 3.66562 1.5625 6.25V25C1.5625 27.5844 3.66562 29.6875 6.25 29.6875ZM4.6875 6.25C4.6875 5.3875 5.3875 4.6875 6.25 4.6875H43.75C44.6125 4.6875 45.3125 5.3875 45.3125 6.25V25C45.3125 25.8625 44.6125 26.5625 43.75 26.5625H28.125V30.0516L22.3078 26.5625H6.25C5.3875 26.5625 4.6875 25.8625 4.6875 25V6.25Z" fill="#A5090F"/>
<path d="M89.0625 35.9375H85.9375V23.4375H82.8125V35.9375H79.6875V20.3125H76.5625V35.9375H73.4375V26.5625H70.3125V35.9375H67.1875V29.6875H64.0625V35.9375H60.9375V39.0625H92.1875V20.3125H89.0625V35.9375Z" fill="#A5090F"/>
<path d="M12.5 20.3125C15.0844 20.3125 17.1875 18.2094 17.1875 15.625C17.1875 13.0406 15.0844 10.9375 12.5 10.9375C9.91562 10.9375 7.8125 13.0406 7.8125 15.625C7.8125 18.2094 9.91562 20.3125 12.5 20.3125ZM12.5 14.0625C13.3625 14.0625 14.0625 14.7625 14.0625 15.625C14.0625 16.4875 13.3625 17.1875 12.5 17.1875C11.6375 17.1875 10.9375 16.4875 10.9375 15.625C10.9375 14.7625 11.6375 14.0625 12.5 14.0625Z" fill="#A5090F"/>
<path d="M25 20.3125C27.5844 20.3125 29.6875 18.2094 29.6875 15.625C29.6875 13.0406 27.5844 10.9375 25 10.9375C22.4156 10.9375 20.3125 13.0406 20.3125 15.625C20.3125 18.2094 22.4156 20.3125 25 20.3125ZM25 14.0625C25.8625 14.0625 26.5625 14.7625 26.5625 15.625C26.5625 16.4875 25.8625 17.1875 25 17.1875C24.1375 17.1875 23.4375 16.4875 23.4375 15.625C23.4375 14.7625 24.1375 14.0625 25 14.0625Z" fill="#A5090F"/>
<path d="M37.5 20.3125C40.0844 20.3125 42.1875 18.2094 42.1875 15.625C42.1875 13.0406 40.0844 10.9375 37.5 10.9375C34.9156 10.9375 32.8125 13.0406 32.8125 15.625C32.8125 18.2094 34.9156 20.3125 37.5 20.3125ZM37.5 14.0625C38.3625 14.0625 39.0625 14.7625 39.0625 15.625C39.0625 16.4875 38.3625 17.1875 37.5 17.1875C36.6375 17.1875 35.9375 16.4875 35.9375 15.625C35.9375 14.7625 36.6375 14.0625 37.5 14.0625Z" fill="#A5090F"/>
<path d="M81.25 64.0625C78.1938 64.0625 75.2016 64.8813 72.5578 66.4375L63.1359 65.3188L66.3047 72.7875C64.8344 75.375 64.0625 78.2828 64.0625 81.25C64.0625 90.7266 71.7734 98.4375 81.25 98.4375C90.7266 98.4375 98.4375 90.7266 98.4375 81.25C98.4375 71.7734 90.7266 64.0625 81.25 64.0625V64.0625ZM72.4297 92.1875H90.0688C87.6547 94.1375 84.5875 95.3125 81.2484 95.3125C77.9094 95.3125 74.8453 94.1375 72.4297 92.1875V92.1875ZM79.1719 81.9984C78.4969 81.3906 78.125 80.5688 78.125 79.6875V76.8281C78.125 75.0453 79.4516 73.5281 81.0797 73.4422C81.9359 73.3922 82.7734 73.6984 83.4016 74.2969C84.0281 74.8937 84.375 75.6969 84.375 76.5625V79.6875C84.375 80.5688 84.0031 81.3906 83.3281 81.9984L82.8125 82.4641V85.3406L87.1313 87.5C87.8266 87.8469 88.3672 88.3984 88.6984 89.0625H73.8031C74.1344 88.3984 74.6766 87.8469 75.3703 87.5L79.6875 85.3406V82.4641L79.1719 81.9984ZM92.1516 90.1172C91.9766 87.8016 90.6313 85.7562 88.5281 84.7047L86.1641 83.5234C87.0219 82.4297 87.5 81.0781 87.5 79.6875V76.5625C87.5 74.8562 86.7906 73.2047 85.5531 72.0297C84.2969 70.8391 82.6719 70.2578 80.9156 70.3203C77.5984 70.4938 75 73.3531 75 76.8281V79.6875C75 81.0781 75.4781 82.4297 76.3344 83.5234L73.9703 84.7047C71.8672 85.7562 70.5219 87.8016 70.3469 90.1172C68.375 87.6953 67.1875 84.6094 67.1875 81.25C67.1875 78.6 67.9422 76.0047 69.3719 73.7453L69.8094 73.0531L68.1141 69.0562L73.275 69.6703L73.7453 69.3734C76.0047 67.9422 78.6 67.1875 81.25 67.1875C89.0047 67.1875 95.3125 73.4953 95.3125 81.25C95.3125 84.6094 94.125 87.6953 92.1516 90.1172V90.1172Z" fill="#A5090F"/>
</svg>
